<svg xmlns="http://www.w3.org/2000/svg" viewBox="0 0 512 512">
  <defs>
    <linearGradient id="bgGrad" x1="0%" y1="0%" x2="100%" y2="100%">
      <stop offset="0%" style="stop-color:#8B5CF6"/>
      <stop offset="100%" style="stop-color:#7C3AED"/>
    </linearGradient>
  </defs>

  <!-- Rounded rectangle background -->
  <rect width="512" height="512" rx="102" ry="102" fill="url(#bgGrad)"/>

  <!-- Heart shape -->
  <path d="M256 420 C130 310 100 220 100 170 C100 110 150 80 200 80 C235 80 256 100 256 100 C256 100 277 80 312 80 C362 80 412 110 412 170 C412 220 382 310 256 420Z" fill="white"/>

  <!-- Pulse line -->
  <path d="M140 245 L190 245 L215 195 L256 295 L297 210 L322 245 L372 245" fill="none" stroke="#8B5CF6" stroke-width="16" stroke-linecap="round" stroke-linejoin="round"/>
</svg>
